# xmcd
#
# Track frame offsets:
#  150
#  16878
#  28538
#  38580
#  47414
#  60126
#  74836
#  90013
#  101814
#  111300
#  126327
#  139357
#  149491
#  162917
#  174745
#
# Disc length: 2474 seconds
#
# Revision: 0
# Processed by: cddbd v1.5.2PL0 Copyright (c) Steve Scherf et al.
# Submitted via: Collectorz.com_Music_Collector 6.9
#
DISCID=cc09a80f
DTITLE=Various Artist - Country Cool Vol3 - Country Dreamin' - CD1
DYEAR=1900
DGENRE=Country
TTITLE0=Lynn Anderson - Blue Bayou
TTITLE1=Don Gibson - Oh Lonesome Me
TTITLE2=Jim Reeves - He'll Have to go
TTITLE3=Sandy Posey - Born A Woman
TTITLE4=Don Williams - Amanda
TTITLE5=Loretta Lynn - Coal Miners Daughter
TTITLE6=Tammy Wynette - Til I Can Make It On my Own
TTITLE7=Conway Twitty - Linda On my Mind
TTITLE8=Charley Pride - Kiss An Angel Good Morning
TTITLE9=Anne Murray - Both Sides Now
TTITLE10=Faron Young - Make The World Go Away
TTITLE11=Don Gibson - Sea Of Heartbreak
TTITLE12=George Jones - Almost Persuaded
TTITLE13=Tammy Wynette - Stand By Your Man
TTITLE14=Conway Twitty - As Soon As I Hang Up The Phone
EXTD=
EXTT0=
EXTT1=
EXTT2=
EXTT3=
EXTT4=
EXTT5=
EXTT6=
EXTT7=
EXTT8=
EXTT9=
EXTT10=
EXTT11=
EXTT12=
EXTT13=
EXTT14=
PLAYORDER=
